<?xml version="1.0" encoding="utf-8"?>
<?xml-stylesheet type="text/xsl" href="rss1.xsl"?>
<rss version="2.0" xmlns:atom="http://www.w3.org/2005/Atom" xmlns:content="http://purl.org/rss/1.0/modules/content/" xmlns:dc="http://purl.org/dc/elements/1.1/" xmlns:media="http://search.yahoo.com/mrss/">
<channel>
 <title>Getty</title>
 <link>http://www.gettyimg.com/</link>
 <atom:link href="http://www.gettyimg.com/" rel="self" type="application/rss+xml" />

 
                <item>
                <title><![CDATA[【Apple Music】WEB-RiP - Don&amp;RL9 - KŁY ft. Cleo, donGURALesko (1080p)]]></title>
                <link><![CDATA[https://sharemania.us/threads/don-rl9-k%C5%81y-ft-cleo-donguralesko-1080p.248541/]]></link>
                <description><![CDATA[<article>
<blockquote class="messageText SelectQuoteContainer ugc baseHtml">
<img src="https://i.postimg.cc/9QY0dnVY/Don-RL9-K-Y-ft-Cleo-don-GURALesko-mp4.jpg" class="bbCodeImage LbImage" alt="[​IMG]" data-url="https://i.postimg.cc/9QY0dnVY/Don-RL9-K-Y-ft-Cleo-don-GURALesko-mp4.jpg" style=""><br>
<br>
<div class="bbCodeBlock bbCodeCode">
<div class="type">Code:</div>
<pre>General
Complete name                  : G:\Новая папка\Don&amp;RL9 - KŁY ft. Cleo, donGURALesko.mp4
Format                         : MPEG-4
Format profile                 : Base Media
Codec ID                       : isom (isom/iso2/avc1/mp41)
File size                      : 305 MiB
Duration                       : 4 min 19 s
Overall bit rate               : 9 862 kb/s
Frame rate                     : 25.000 FPS
Movie name                     : KŁY (feat. Cleo &amp; Donguralesko)
Performer                      : Don&amp;RL9
Genre                          : Pop
ContentType                    : Music Video
Recorded date                  : 2019-09-24 07:00:00 UTC
Writing application            : Lavf56.30.100
Copyright                      : ℗ 2019 STAMINA

Video
ID                             : 1
Format                         : AVC
Format/Info                    : Advanced Video Codec
Format profile                 : High@L4.1
Format settings                : CABAC / 4 Ref Frames
Format settings, CABAC         : Yes
Format settings, Reference fra : 4 frames
Format settings, Slice count   : 8 slices per frame
Codec ID                       : avc1
Codec ID/Info                  : Advanced Video Coding
Duration                       : 4 min 19 s
Bit rate                       : 9 603 kb/s
Width                          : 1 912 pixels
Height                         : 1 072 pixels
Display aspect ratio           : 16:9
Frame rate mode                : Constant
Frame rate                     : 25.000 FPS
Color space                    : YUV
Chroma subsampling             : 4:2:0
Bit depth                      : 8 bits
Scan type                      : Progressive
Bits/(Pixel*Frame)             : 0.187
Stream size                    : 297 MiB (97%)
Color range                    : Limited
Color primaries                : BT.709
Transfer characteristics       : BT.709
Matrix coefficients            : BT.709
Codec configuration box        : avcC

Audio
ID                             : 2
Format                         : AAC LC
Format/Info                    : Advanced Audio Codec Low Complexity
Codec ID                       : mp4a-40-2
Duration                       : 4 min 19 s
Duration_LastFrame             : -12 ms
Bit rate mode                  : Constant
Bit rate                       : 255 kb/s
Channel(s)                     : 2 channels
Channel layout                 : L R
Sampling rate                  : 48.0 kHz
Frame rate                     : 46.875 FPS (1024 SPF)
Compression mode               : Lossy
Stream size                    : 7.91 MiB (3%)
Default                        : Yes
Alternate group                : 1

</pre>
</div>
<div class="bbCodeBlock bbCodeVfcHH HiddenContent">
<div class="attribution type">Hidden Content:</div>
<blockquote>You must either reply or click 'Like' to see the hidden information contained here.</blockquote>
</div>
<div class="messageTextEndMarker">&nbsp;</div>
</blockquote>
</article>]]></description>
                <author><![CDATA[vitalya3]]></author>
                </item>

                
                <item>
                <title><![CDATA[【Requests】[REQ AUD] - 2 album requests...]]></title>
                <link><![CDATA[https://sharemania.us/threads/2-album-requests.248545/]]></link>
                <description><![CDATA[<article>
<blockquote class="messageText SelectQuoteContainer ugc baseHtml">
Hi Friends,<br>
<br>
Pretty please can someone get me this album from itunes?<br>
<a href="https://music.apple.com/gb/album/nodesha/823793967" target="_blank" class="externalLink" rel="nofollow">https://music.apple.com/gb/album/nodesha/823793967</a><br>
<br>
Theres also 2 Japan bonus tracks out there which would be amazing too please<br>
<a href="https://www.discogs.com/release/1516385-Nodesha-Nodesha" target="_blank" class="externalLink" rel="nofollow">https://www.discogs.com/release/1516385-Nodesha-Nodesha</a><br>
<br>
14 Shake 'Em<br>
15 Rock Your Body<br>
<br>
The other one is this Jessica album..<br>
<a href="https://www.discogs.com/release/1818921-Jessica-You-Cant-Resist" target="_blank" class="externalLink" rel="nofollow">https://www.discogs.com/release/1818921-Jessica-You-Cant-Resist</a><br>
<br>
320kps ideally or similiar like WAV/HQ<br>
<br>
<br>
Thanks
<div class="messageTextEndMarker">&nbsp;</div>
</blockquote>
</article>]]></description>
                <author><![CDATA[CiciCooper]]></author>
                </item>

                
                <item>
                <title><![CDATA[【Apple Music】WEB-RiP - Pitbull - Rain Over Me (feat. Marc Anthony) (1080p)]]></title>
                <link><![CDATA[https://sharemania.us/threads/pitbull-rain-over-me-feat-marc-anthony-1080p.248544/]]></link>
                <description><![CDATA[<article>
<blockquote class="messageText SelectQuoteContainer ugc baseHtml">
<img src="https://i.postimg.cc/2jQYJBb0/Pitbull-Rain-Over-Me-feat-Marc-Anthony-mp4.jpg" class="bbCodeImage LbImage" alt="[​IMG]" data-url="https://i.postimg.cc/2jQYJBb0/Pitbull-Rain-Over-Me-feat-Marc-Anthony-mp4.jpg" style=""><br>
<br>
<div class="bbCodeBlock bbCodeCode">
<div class="type">Code:</div>
<pre>General
Complete name                  : G:\Новая папка\Pitbull - Rain Over Me (feat. Marc Anthony).mp4
Format                         : MPEG-4
Format profile                 : Base Media
Codec ID                       : isom (isom/iso2/avc1/mp41)
File size                      : 283 MiB
Duration                       : 3 min 53 s
Overall bit rate               : 10.1 Mb/s
Frame rate                     : 23.976 FPS
Movie name                     : Rain Over Me (feat. Marc Anthony)
Performer                      : Pitbull
Genre                          : Pop
ContentType                    : Music Video
Recorded date                  : 2011-07-22 07:00:00 UTC
Writing application            : Lavf56.30.100
Copyright                      : ℗ (C) 2011 J Records, a unit of Sony Music Entertainment

Video
ID                             : 1
Format                         : AVC
Format/Info                    : Advanced Video Codec
Format profile                 : High@L4
Format settings                : CABAC / 4 Ref Frames
Format settings, CABAC         : Yes
Format settings, Reference fra : 4 frames
Format settings, Slice count   : 8 slices per frame
Codec ID                       : avc1
Codec ID/Info                  : Advanced Video Coding
Duration                       : 3 min 53 s
Bit rate                       : 9 893 kb/s
Width                          : 1 916 pixels
Height                         : 1 076 pixels
Display aspect ratio           : 16:9
Frame rate mode                : Constant
Frame rate                     : 23.976 (23976/1000) FPS
Color space                    : YUV
Chroma subsampling             : 4:2:0
Bit depth                      : 8 bits
Scan type                      : Progressive
Bits/(Pixel*Frame)             : 0.200
Stream size                    : 276 MiB (97%)
Color range                    : Limited
Color primaries                : BT.709
Transfer characteristics       : BT.709
Matrix coefficients            : BT.709
Codec configuration box        : avcC

Audio
ID                             : 2
Format                         : AAC LC
Format/Info                    : Advanced Audio Codec Low Complexity
Codec ID                       : mp4a-40-2
Duration                       : 3 min 53 s
Duration_LastFrame             : -15 ms
Bit rate mode                  : Constant
Bit rate                       : 251 kb/s
Channel(s)                     : 2 channels
Channel layout                 : L R
Sampling rate                  : 48.0 kHz
Frame rate                     : 46.875 FPS (1024 SPF)
Compression mode               : Lossy
Stream size                    : 7.00 MiB (2%)
Default                        : Yes
Alternate group                : 1

</pre>
</div>
<div class="bbCodeBlock bbCodeVfcHH HiddenContent">
<div class="attribution type">Hidden Content:</div>
<blockquote>You must either reply or click 'Like' to see the hidden information contained here.</blockquote>
</div>
<div class="messageTextEndMarker">&nbsp;</div>
</blockquote>
</article>]]></description>
                <author><![CDATA[vitalya3]]></author>
                </item>

                
                <item>
                <title><![CDATA[【Apple Music】WEB-RiP - Pitbull - Get It Started (feat. Shakira) (1080p)]]></title>
                <link><![CDATA[https://sharemania.us/threads/pitbull-get-it-started-feat-shakira-1080p.248546/]]></link>
                <description><![CDATA[<article>
<blockquote class="messageText SelectQuoteContainer ugc baseHtml">
<img src="https://i.postimg.cc/BbYMygx8/Pitbull-Get-It-Started-feat-Shakira-mp4.jpg" class="bbCodeImage LbImage" alt="[​IMG]" data-url="https://i.postimg.cc/BbYMygx8/Pitbull-Get-It-Started-feat-Shakira-mp4.jpg" style=""><br>
<br>
<div class="bbCodeBlock bbCodeCode">
<div class="type">Code:</div>
<pre>General
Complete name                  : G:\Новая папка\Pitbull - Get It Started (feat. Shakira).mp4
Format                         : MPEG-4
Format profile                 : Base Media
Codec ID                       : isom (isom/iso2/avc1/mp41)
File size                      : 214 MiB
Duration                       : 4 min 28 s
Overall bit rate               : 6 694 kb/s
Frame rate                     : 23.976 FPS
Movie name                     : Get It Started (feat. Shakira)
Performer                      : Pitbull
Genre                          : Pop
ContentType                    : Music Video
Recorded date                  : 2012-08-02 07:00:00 UTC
Writing application            : Lavf56.30.100
Copyright                      : ℗ (C) 2012 RCA Records, a division of Sony Music Entertainment

Video
ID                             : 1
Format                         : AVC
Format/Info                    : Advanced Video Codec
Format profile                 : High@L4
Format settings                : CABAC / 4 Ref Frames
Format settings, CABAC         : Yes
Format settings, Reference fra : 4 frames
Format settings, Slice count   : 8 slices per frame
Codec ID                       : avc1
Codec ID/Info                  : Advanced Video Coding
Duration                       : 4 min 28 s
Bit rate                       : 6 440 kb/s
Width                          : 1 916 pixels
Height                         : 1 008 pixels
Display aspect ratio           : 1.901
Frame rate mode                : Constant
Frame rate                     : 23.976 (23976/1000) FPS
Color space                    : YUV
Chroma subsampling             : 4:2:0
Bit depth                      : 8 bits
Scan type                      : Progressive
Bits/(Pixel*Frame)             : 0.139
Stream size                    : 206 MiB (96%)
Color range                    : Limited
Color primaries                : BT.709
Transfer characteristics       : BT.709
Matrix coefficients            : BT.709
Codec configuration box        : avcC

Audio
ID                             : 2
Format                         : AAC LC
Format/Info                    : Advanced Audio Codec Low Complexity
Codec ID                       : mp4a-40-2
Duration                       : 4 min 28 s
Duration_LastFrame             : -4 ms
Bit rate mode                  : Constant
Bit rate                       : 250 kb/s
Channel(s)                     : 2 channels
Channel layout                 : L R
Sampling rate                  : 48.0 kHz
Frame rate                     : 46.875 FPS (1024 SPF)
Compression mode               : Lossy
Stream size                    : 8.00 MiB (4%)
Default                        : Yes
Alternate group                : 1

</pre>
</div>
<div class="bbCodeBlock bbCodeVfcHH HiddenContent">
<div class="attribution type">Hidden Content:</div>
<blockquote>You must either reply or click 'Like' to see the hidden information contained here.</blockquote>
</div>
<div class="messageTextEndMarker">&nbsp;</div>
</blockquote>
</article>]]></description>
                <author><![CDATA[vitalya3]]></author>
                </item>

                
                <item>
                <title><![CDATA[【Singles (lossless)】FLAC - YOASOBI - 2024 - UNDEAD [Single] [24bit-96kHz]]]></title>
                <link><![CDATA[https://sharemania.us/threads/yoasobi-2024-undead-single-24bit-96khz.248543/]]></link>
                <description><![CDATA[<article>
<blockquote class="messageText SelectQuoteContainer ugc baseHtml">
<div style="text-align: center"><img src="https://i.imgur.com/445W1BC.jpeg" class="bbCodeImage LbImage" alt="[​IMG]" data-url="https://i.imgur.com/445W1BC.jpeg" style=""> <br>
<br>
<b>Band</b>: YOASOBI<br>
<b>Single</b>: UNDEAD <br>
<b>Date</b>: 1 July 2024<br>
<b>Genre</b>: J-Pop<br>
<b>Quality</b>: 24bit-96kHz<br>
<b>Country</b>: Japan<br>
<b>Size</b>: 77,1MB<br>
<br>
<b>Tracklist</b>:<br>
<br>
1. UNDEAD 03:02<br>
<br>
<b><span style="font-size: 22px"><span style="color: #b30000">Send.cm</span></span></b>:<br>
<br>
<div class="bbCodeBlock bbCodeVfcHH HiddenContent">
<div class="attribution type">Hidden Content:</div>
<blockquote>You must either reply or click 'Like' to see the hidden information contained here.</blockquote>
</div></div>
<div class="messageTextEndMarker">&nbsp;</div>
</blockquote>
</article>]]></description>
                <author><![CDATA[XRB80]]></author>
                </item>

                
                <item>
                <title><![CDATA[【Apple Music】WEB-RiP - Galantis, David Guetta &amp; 5 Seconds of Summer - Lighter (1080p)]]></title>
                <link><![CDATA[https://sharemania.us/threads/galantis-david-guetta-5-seconds-of-summer-lighter-1080p.248542/]]></link>
                <description><![CDATA[<article>
<blockquote class="messageText SelectQuoteContainer ugc baseHtml">
<img src="https://i.postimg.cc/L5SQd5YP/Galantis-David-Guetta-5-Seconds-of-Summer-Lighter-mp4.jpg" class="bbCodeImage LbImage" alt="[​IMG]" data-url="https://i.postimg.cc/L5SQd5YP/Galantis-David-Guetta-5-Seconds-of-Summer-Lighter-mp4.jpg" style=""><br>
<br>
<div class="bbCodeBlock bbCodeCode">
<div class="type">Code:</div>
<pre>General
Complete name                  : G:\Новая папка\Galantis, David Guetta &amp; 5 Seconds of Summer - Lighter.mp4
Format                         : MPEG-4
Format profile                 : Base Media
Codec ID                       : isom (isom/iso2/avc1/mp41)
File size                      : 202 MiB
Duration                       : 2 min 51 s
Overall bit rate               : 9 905 kb/s
Frame rate                     : 23.976 FPS
Movie name                     : Lighter
Performer                      : Galantis, David Guetta &amp; 5 Seconds of Summer
Genre                          : Dance
ContentType                    : Music Video
Recorded date                  : 2024-03-29 07:00:00 UTC
Writing application            : Lavf56.30.100
Copyright                      : ℗ © 2024 Big Beat Records

Video
ID                             : 1
Format                         : AVC
Format/Info                    : Advanced Video Codec
Format profile                 : High@L4
Format settings                : CABAC / 4 Ref Frames
Format settings, CABAC         : Yes
Format settings, Reference fra : 4 frames
Format settings, Slice count   : 8 slices per frame
Codec ID                       : avc1
Codec ID/Info                  : Advanced Video Coding
Duration                       : 2 min 51 s
Bit rate                       : 9 643 kb/s
Width                          : 1 920 pixels
Height                         : 1 080 pixels
Display aspect ratio           : 16:9
Frame rate mode                : Constant
Frame rate                     : 23.976 (24000/1001) FPS
Color space                    : YUV
Chroma subsampling             : 4:2:0
Bit depth                      : 8 bits
Scan type                      : Progressive
Bits/(Pixel*Frame)             : 0.194
Stream size                    : 197 MiB (97%)
Color range                    : Limited
Color primaries                : BT.709
Transfer characteristics       : BT.709
Matrix coefficients            : BT.709
Codec configuration box        : avcC

Audio
ID                             : 2
Format                         : AAC LC
Format/Info                    : Advanced Audio Codec Low Complexity
Codec ID                       : mp4a-40-2
Duration                       : 2 min 51 s
Duration_LastFrame             : -12 ms
Bit rate mode                  : Constant
Bit rate                       : 258 kb/s
Channel(s)                     : 2 channels
Channel layout                 : L R
Sampling rate                  : 48.0 kHz
Frame rate                     : 46.875 FPS (1024 SPF)
Compression mode               : Lossy
Stream size                    : 5.28 MiB (3%)
Default                        : Yes
Alternate group                : 1

</pre>
</div>
<div class="bbCodeBlock bbCodeVfcHH HiddenContent">
<div class="attribution type">Hidden Content:</div>
<blockquote>You must either reply or click 'Like' to see the hidden information contained here.</blockquote>
</div>
<div class="messageTextEndMarker">&nbsp;</div>
</blockquote>
</article>]]></description>
                <author><![CDATA[vitalya3]]></author>
                </item>

                </channel></rss>